HIERARCHY
ROOT pelvis
{
  OFFSET 0 100 0
  CHANNELS 6 Xposition Yposition Zposition Zrotation Xrotation Yrotation
  JOINT pelvis_right_femur
  {
    OFFSET -10.78128 -3.44521 -0.5502486
    CHANNELS 3 Zrotation Xrotation Yrotation
    JOINT right_femur_tibia
    {
      OFFSET -0.8047443 -44.0398 -0.1307829
      CHANNELS 3 Zrotation Xrotation Yrotation
      JOINT right_tibia_foot
      {
        OFFSET 3.006224 -47.83518 -5
        CHANNELS 3 Zrotation Xrotation Yrotation
        End Site
        {
          OFFSET 0 -5 15
        }
      }
    }
  }
  JOINT pelvis_left_femur
  {
    OFFSET 10.78128 -3.44521 -0.5502486
    CHANNELS 3 Zrotation Xrotation Yrotation
    JOINT left_femur_tibia
    {
      OFFSET 0.8047443 -44.0398 -0.1307829
      CHANNELS 3 Zrotation Xrotation Yrotation
      JOINT left_tibia_foot
      {
        OFFSET -4.370144 -48.10324 -4.275266
        CHANNELS 3 Zrotation Xrotation Yrotation
        End Site
        {
          OFFSET 0 -5 15
        }
      }
    }
  }
  JOINT pelvis_spine1
  {
    OFFSET 0 6.468898 -3.129235
    CHANNELS 3 Zrotation Xrotation Yrotation
    JOINT spine1
    {
      OFFSET 0 23.15396 4.99043
      CHANNELS 3 Zrotation Xrotation Yrotation
      JOINT spine2
      {
        OFFSET 0 20.79997 -5.064912
        CHANNELS 3 Zrotation Xrotation Yrotation
        JOINT neck
        {
          OFFSET 0 14.38658 9.616178
          CHANNELS 3 Zrotation Xrotation Yrotation
          End Site
          {
            OFFSET 0 20 0
          }
        }
      }
      JOINT right_manubrium
      {
        OFFSET -5.722621 16.35077 3.967754
        CHANNELS 3 Zrotation Xrotation Yrotation
        JOINT right_clavicle
        {
          OFFSET -13.16364 1.694482 -4.693211
          CHANNELS 3 Zrotation Xrotation Yrotation
          JOINT right_humerus
          {
            OFFSET -28.5034 -0.3100689 -2.792744
            CHANNELS 3 Zrotation Xrotation Yrotation
            JOINT right_radius
            {
              OFFSET -25.15693 0.02248979 -1.271978
              CHANNELS 3 Zrotation Xrotation Yrotation
              End Site
              {
                OFFSET -15 0 0
              }
            }
          }
        }
      }
      JOINT left_manubrium
      {
        OFFSET 5.722621 16.35077 3.967754
        CHANNELS 3 Zrotation Xrotation Yrotation
        JOINT left_clavicle
        {
          OFFSET 13.16364 1.694482 -4.693211
          CHANNELS 3 Zrotation Xrotation Yrotation
          JOINT left_humerus
          {
            OFFSET 29.39168 -1.063119 -2.237045
            CHANNELS 3 Zrotation Xrotation Yrotation
            JOINT left_radius
            {
              OFFSET 24.59957 -0.9528479 0.9047498
              CHANNELS 3 Zrotation Xrotation Yrotation
              End Site
              {
                OFFSET 15 -0 -0
              }
            }
          }
        }
      }
    }
  }
}
MOTION
Frames: 13
Frame Time: 0.0416666666667
-826.7365 105.0345 2797.998 -5.118887 -6.041238 -43.70011 0.4414612 -14.65865 -0.5537502 -0 39.36595 -0 -8.279487 5.627076 -2.67903 -4.997257 6.852476 -10.36579 -0 11.81784 -0 0.05440215 -15.82159 16.89757 2.421816 -2.403175 8.656575 0.5620929 17.65336 -7.778106 1.920722 19.40262 0.07666578 -0.06048964 -17.14643 2.73175 -5.195762 -26.45222 11.83814 96.06497 18.95134 -19.0501 -0 0 19.16594 -17.59681 14.1837 7.131501 0.6683057 -26.21139 -9.819473 -88.6843 9.576556 29.44211 0 0 -24.23109 5.965035 11.85131 7.975249
-830.0178 104.2294 2801.937 -4.384939 -5.662635 -43.05837 0.08459815 -18.74736 -1.807179 -0 29.09901 -0 -7.750021 2.983762 -3.12957 -5.133091 10.10766 -10.37399 -0 10.35755 -0 -0.739229 -18.0575 15.83812 2.456283 -2.225596 8.580567 0.4647254 17.33959 -7.953208 1.965938 19.57995 0.06573103 0.1095022 -17.07989 2.600797 -5.663205 -25.56395 11.53003 97.1254 19.62714 -20.40081 -0 0 17.54203 -17.31955 13.16184 6.132956 1.069863 -26.8075 -9.760912 -87.57037 9.356662 27.29945 0 0 -26.68198 6.422448 11.58855 7.301253
-833.4827 103.0291 2805.924 -3.31663 -5.008731 -42.53403 -0.05466921 -22.25187 -2.875078 -0 19.87067 -0 -7.12493 1.649388 -3.395089 -5.453211 12.63424 -10.12534 -0 10.11928 -0 -0.8743059 -19.82773 15.0326 2.40067 -2.114284 8.406728 0.319314 16.98985 -8.026934 1.959384 19.78818 0.2406779 0.416788 -17.0373 2.533741 -5.868239 -24.76585 11.28612 97.79134 20.22219 -21.39853 -0 0 16.21055 -17.43075 12.30392 5.523539 1.632496 -27.32517 -9.679622 -86.70036 9.178302 25.25037 0 0 -28.52647 7.027535 11.52148 6.339025
-837.189 101.6633 2810.035 -2.327368 -4.22445 -42.11242 0.2442588 -25.22496 -3.525643 -0 12.91684 -0 -6.615774 1.613795 -3.44575 -5.743152 14.57623 -9.654743 -0 11.43244 -0 -0.5038478 -20.77277 14.46427 2.282181 -2.06173 8.167512 0.1637537 16.67311 -8.028228 1.915433 20.00148 0.5374904 0.793423 -17.02105 2.524754 -5.844998 -24.1059 11.12936 98.09197 20.67069 -22.05301 -0 0 15.20071 -17.80324 11.67599 5.252911 2.242691 -27.73611 -9.611891 -86.09774 9.064962 23.47198 0 0 -29.72231 7.697929 11.61585 5.249341
-841.1962 100.3567 2814.348 -1.7198 -3.490683 -41.76717 1.023945 -27.38508 -3.713243 -0 8.558583 -0 -6.384605 2.478933 -3.3187 -5.836442 16.071 -9.035514 -0 14.52402 -0 -0.1309655 -20.71575 13.94709 2.1311 -2.047276 7.898913 0.01970118 16.43145 -7.976188 1.850575 20.20525 0.8959084 1.187323 -17.01913 2.5618 -5.64533 -23.59886 11.06413 98.08679 20.95533 -22.39601 -0 0 14.50258 -18.31626 11.29015 5.242552 2.808536 -28.02364 -9.583498 -85.76096 9.030149 22.08396 0 0 -30.26895 8.364041 11.83144 4.170343
-845.5526 99.33017 2818.927 -1.643517 -2.956455 -41.49513 2.227568 -28.22099 -3.427283 -0 6.741357 -0 -6.473325 3.646334 -3.150791 -5.645912 17.08227 -8.313545 -0 19.5966 -0 -0.2299536 -19.52626 13.28857 1.970945 -2.048973 7.630066 -0.1058275 16.28513 -7.879886 1.776568 20.39387 1.27447 1.570419 -17.01597 2.630614 -5.313763 -23.24219 11.08533 97.83273 21.08678 -22.4602 -0 0 14.09623 -18.88787 11.1298 5.421761 3.273442 -28.1821 -9.610497 -85.6806 9.076559 21.152 0 0 -30.17664 8.981524 12.13532 3.189704
-850.2517 98.79669 2823.771 -2.087175 -2.693561 -41.35673 3.724742 -27.17292 -2.571297 -0 7.258947 -0 -6.803051 4.348941 -3.211463 -5.168219 17.2954 -7.516092 -0 26.76054 -0 -0.9205243 -17.09182 12.51407 1.819241 -2.050024 7.386003 -0.212801 16.24007 -7.743377 1.700809 20.56291 1.643338 1.926079 -16.99814 2.716526 -4.88764 -23.03362 11.18255 97.37739 21.08774 -22.26943 -0 0 13.97282 -19.46397 11.16953 5.736433 3.604794 -28.21001 -9.697536 -85.84703 9.195908 20.71677 0 0 -29.46388 9.515975 12.49748 2.367312
-855.1868 98.92557 2828.757 -2.869666 -2.656202 -41.4829 5.286165 -24.00708 -1.041378 -0 9.609141 -0 -7.310209 3.841825 -3.758949 -4.490055 16.13898 -6.751095 -0 35.79386 -0 -1.801916 -13.5234 12.02502 1.691462 -2.041422 7.194047 -0.3019797 16.29237 -7.570669 1.628259 20.70212 1.973671 2.235977 -16.95633 2.804136 -4.405897 -22.9828 11.3407 96.76409 20.98488 -21.83804 -0 0 14.145 -19.99869 11.38332 6.145123 3.780533 -28.10636 -9.836335 -86.25079 9.367436 20.81797 0 0 -28.16997 9.925078 12.88217 1.764524
-860.1471 99.7563 2833.647 -3.727472 -2.755719 -42.00023 6.573438 -19.28 0.8881158 -0 12.70383 -0 -8.091252 1.965375 -4.605694 -3.7678 13.09601 -6.292167 -0 45.77435 -0 -2.326081 -9.541059 12.32481 1.602551 -2.023691 7.087479 -0.3706299 16.42943 -7.369947 1.561597 20.79071 2.232613 2.474183 -16.88632 2.875959 -3.914092 -23.11665 11.54012 96.03503 20.80559 -21.17405 -0 0 14.65067 -20.44159 11.74639 6.613517 3.783582 -27.87209 -10.00546 -86.87873 9.554864 21.50215 0 0 -26.37233 10.15124 13.2416 1.457269
-864.9026 101.1111 2838.24 -4.460413 -3.077752 -42.88965 7.237971 -14.09077 2.406012 -0 14.92973 -0 -8.976793 -0.5059643 -5.039629 -3.175148 8.181919 -6.282729 -0 54.85447 -0 -2.570109 -6.443064 13.30865 1.563474 -2.007979 7.102595 -0.409191 16.62786 -7.156611 1.499421 20.79643 2.386567 2.609803 -16.78901 2.912152 -3.459535 -23.47575 11.75832 95.22592 20.57825 -20.28324 -0 0 15.54813 -20.73418 12.2348 7.111311 3.605884 -27.51471 -10.17146 -87.70717 9.705144 22.80919 0 0 -24.20022 10.13027 13.51559 1.52496
-869.3326 102.6285 2842.507 -4.920494 -3.79827 -43.94666 7.086606 -8.863284 3.054857 -0 15.14038 -0 -9.175049 -2.770133 -4.766554 -2.752175 1.937407 -6.32528 -0 60.67028 -0 -2.973212 -5.028366 14.33613 1.572932 -2.014462 7.264996 -0.4008172 16.84897 -6.951588 1.434452 20.68409 2.414575 2.618749 -16.66857 2.89564 -3.073487 -24.09535 11.97411 94.35087 20.33341 -19.17183 -0 0 16.89261 -20.82118 12.82489 7.616405 3.260801 -27.05071 -10.29187 -88.69547 9.758552 24.73403 0 0 -21.82605 9.818651 13.64445 2.013281
-873.4618 103.913 2846.512 -5.074606 -4.772127 -44.95499 6.30862 -3.385139 3.167711 -0 13.61551 -0 -8.508998 -4.871876 -4.230623 -2.258126 -4.832497 -6.039039 -0 61.4637 -0 -3.413432 -4.860536 15.27777 1.611087 -2.066734 7.569602 -0.3278666 17.03769 -6.771887 1.355584 20.43455 2.325183 2.498176 -16.53058 2.824147 -2.751643 -24.97611 12.17261 93.39136 20.09942 -17.84698 -0 0 18.69462 -20.67911 13.4935 8.128912 2.794305 -26.50117 -10.32125 -89.78678 9.675679 27.18265 0 0 -19.42363 9.224351 13.59681 2.893111
-877.3774 104.664 2850.322 -5.143288 -5.616614 -45.84755 5.474476 2.071461 3.017566 -0 11.53024 -0 -7.740297 -7.119664 -3.700003 -1.400357 -11.20228 -5.522148 -0 57.03688 -0 -3.61055 -5.158623 16.4223 1.647576 -2.185244 7.976577 -0.1816917 17.13663 -6.623738 1.255706 20.05698 2.152924 2.264247 -16.38465 2.717109 -2.464225 -26.07334 12.34569 92.32027 19.88935 -16.32735 -0 0 20.88983 -20.33547 14.21906 8.676131 2.275168 -25.88697 -10.22075 -90.91281 9.460185 29.96887 0 0 -17.142 8.40461 13.38528 4.067386
